<?xml version="1.0" standalone="no"?><!DOCTYPE svg PUBLIC "-//W3C//DTD SVG 1.1//EN" "http://www.w3.org/Graphics/SVG/1.1/DTD/svg11.dtd"><svg class="octicon octicon-repo-forked" viewBox="0 0 10 16" version="1.1" width="10" height="16" aria-hidden="true" xmlns="http://www.w3.org/2000/svg" xmlns:xlink="http://www.w3.org/1999/xlink" style="block-size:16px;border-block-end-color:rgb(17, 17, 17);border-block-start-color:rgb(17, 17, 17);border-bottom-color:rgb(17, 17, 17);border-inline-end-color:rgb(17, 17, 17);border-inline-start-color:rgb(17, 17, 17);border-left-color:rgb(17, 17, 17);border-right-color:rgb(17, 17, 17);border-top-color:rgb(17, 17, 17);caret-color:rgb(17, 17, 17);color:rgb(17, 17, 17);column-rule-color:rgb(17, 17, 17);display:inline-block;fill:rgb(17, 17, 17);height:16px;inline-size:10px;margin-inline-end:10px;margin-right:10px;outline-color:rgb(17, 17, 17);perspective-origin:5px 8px;text-decoration-color:rgb(17, 17, 17);text-emphasis-color:rgb(17, 17, 17);transform-origin:5px 8px;vertical-align:middle;width:10px;-webkit-text-fill-color:rgb(17, 17, 17);-webkit-text-stroke-color:rgb(17, 17, 17);"><path fill-rule="evenodd" d="M8 1a1.993 1.993 0 0 0-1 3.72V6L5 8 3 6V4.72A1.993 1.993 0 0 0 2 1a1.993 1.993 0 0 0-1 3.72V6.5l3 3v1.78A1.993 1.993 0 0 0 5 15a1.993 1.993 0 0 0 1-3.72V9.5l3-3V4.72A1.993 1.993 0 0 0 8 1zM2 4.2C1.34 4.2.8 3.65.8 3c0-.65.55-1.2 1.2-1.2.65 0 1.2.55 1.2 1.2 0 .65-.55 1.2-1.2 1.2zm3 10c-.66 0-1.2-.55-1.2-1.2 0-.65.55-1.2 1.2-1.2.65 0 1.2.55 1.2 1.2 0 .65-.55 1.2-1.2 1.2zm3-10c-.66 0-1.2-.55-1.2-1.2 0-.65.55-1.2 1.2-1.2.65 0 1.2.55 1.2 1.2 0 .65-.55 1.2-1.2 1.2z" style="block-size:auto;border-block-end-color:rgb(17, 17, 17);border-block-start-color:rgb(17, 17, 17);border-bottom-color:rgb(17, 17, 17);border-inline-end-color:rgb(17, 17, 17);border-inline-start-color:rgb(17, 17, 17);border-left-color:rgb(17, 17, 17);border-right-color:rgb(17, 17, 17);border-top-color:rgb(17, 17, 17);caret-color:rgb(17, 17, 17);color:rgb(17, 17, 17);column-rule-color:rgb(17, 17, 17);fill:rgb(17, 17, 17);fill-rule:evenodd;height:auto;inline-size:auto;outline-color:rgb(17, 17, 17);overflow:visible;overflow-x:visible;overflow-y:visible;perspective-origin:5px 8px;text-decoration-color:rgb(17, 17, 17);text-emphasis-color:rgb(17, 17, 17);transform-origin:0px 0px;width:auto;-moz-user-select:none;-webkit-text-fill-color:rgb(17, 17, 17);-webkit-text-stroke-color:rgb(17, 17, 17);"/></svg>